<?xml version="1.0" encoding="UTF-8"?>
<!DOCTYPE svg PUBLIC "-//W3C//DTD SVG 1.1//EN" "http://www.w3.org/Graphics/SVG/1.1/DTD/svg11.dtd">
<svg xmlns="http://www.w3.org/2000/svg" version="1.1" width="800px" height="600px" style="shape-rendering:geometricPrecision; text-rendering:geometricPrecision; image-rendering:optimizeQuality; fill-rule:evenodd; clip-rule:evenodd" xmlns:xlink="http://www.w3.org/1999/xlink">
<g><path style="opacity:1" fill="#6b717e" d="M 377.5,33.5 C 462.645,28.6878 532.812,58.3544 588,122.5C 639.791,190.127 654.124,265.127 631,347.5C 603.766,427.067 550.266,480.234 470.5,507C 379.763,530.981 299.763,511.647 230.5,449C 164.904,380.462 143.738,299.962 167,207.5C 189.925,133.907 236.758,81.7401 307.5,51C 330.179,41.9968 353.513,36.1635 377.5,33.5 Z"/></g>
<g><path style="opacity:1" fill="#6366f1" d="M 301.5,93.5 C 302.458,93.9528 303.292,94.6195 304,95.5C 325.579,136.326 347.412,176.992 369.5,217.5C 351.275,230.768 341.609,248.768 340.5,271.5C 295.833,271.5 251.167,271.5 206.5,271.5C 207.329,195.148 238.996,135.814 301.5,93.5 Z"/></g>
<g><path style="opacity:1" fill="#6265f0" d="M 496.5,93.5 C 549.526,127.429 580.693,175.763 590,238.5C 591.441,249.457 592.274,260.457 592.5,271.5C 547.833,271.5 503.167,271.5 458.5,271.5C 457.723,248.606 448.056,230.606 429.5,217.5C 451.846,176.14 474.179,134.806 496.5,93.5 Z"/></g>
<g><path style="opacity:1" fill="#6265f0" d="M 392.5,231.5 C 423.52,231.69 438.354,247.356 437,278.5C 434.245,295.92 424.412,307.087 407.5,312C 389.895,314.611 376.395,308.445 367,293.5C 359.448,278.337 359.781,263.337 368,248.5C 374.166,239.816 382.332,234.15 392.5,231.5 Z"/></g>
<g><path style="opacity:1" fill="#6265f0" d="M 369.5,327.5 C 376.044,329.959 382.711,332.126 389.5,334C 397.555,334.822 405.555,334.488 413.5,333C 418.61,331.297 423.61,329.63 428.5,328C 450.833,369 473.167,410 495.5,451C 431.5,489 367.5,489 303.5,451C 326.161,410.177 348.161,369.01 369.5,327.5 Z"/></g>
</svg>
